<svg xmlns="http://www.w3.org/2000/svg" width="100" height="40"><path fill="#3F3FFF" d="M25.941.71c-.222 0-.805.387-1.434.681-.411.192-1.102.472-1.899.708-.983.291-1.857.471-3.476.471-1.341 0-2.947-.237-4.911-.735a36.874 36.874 0 0 0-2.676-.583c-.938-.167-1.812-.259-2.621-.259-1.209 0-2.369.133-3.476.4a13.28 13.28 0 0 0-3.366 1.31c-.187.105-.275.276-.275.497v6.179c0 .266.121.387.331.387.136 0 .246-.073.294-.102.758-.472 1.839-.928 3.016-1.222A14.165 14.165 0 0 1 8.924 8c.827 0 1.683.082 2.621.248.938.166 1.825.376 2.676.579 2.213.528 3.842.772 4.911.772 1.126 0 2.261-.184 3.476-.551a13.151 13.151 0 0 0 1.899-.732c.495-.238.965-.507 1.41-.813.185-.127.276-.265.276-.497V1.017c0-.196-.067-.307-.252-.307m29.99 31.51H44.897c-.883 0-1.582-.257-2.097-.772-.516-.514-.772-1.214-.772-2.097V1.103c0-.294-.148-.442-.442-.442h-6.29c-.295 0-.442.148-.442.442v29.628c0 2.575.781 4.644 2.345 6.207 1.563 1.564 3.631 2.344 6.206 2.344h12.524c.294 0 .442-.146.442-.44v-6.18c.002-.294-.146-.442-.44-.442M95.572 9.959c-1.747-3.071-4.119-5.499-7.117-7.283C85.457.892 82.194 0 78.662 0c-3.531 0-6.805.892-9.821 2.675-3.016 1.784-5.406 4.212-7.172 7.283-1.765 3.071-2.648 6.41-2.648 10.013 0 3.642.883 6.99 2.648 10.042 1.766 3.053 4.156 5.481 7.172 7.283C71.857 39.099 75.131 40 78.662 40c3.531 0 6.795-.891 9.793-2.676 2.998-1.784 5.37-4.211 7.117-7.283 1.747-3.07 2.621-6.428 2.621-10.07 0-3.603-.873-6.941-2.621-10.012m-6.069 16.606c-1.122 2.042-2.639 3.661-4.552 4.855-1.912 1.196-4.009 1.793-6.289 1.793-2.244 0-4.341-.606-6.29-1.821a13.336 13.336 0 0 1-4.635-4.855c-1.14-2.023-1.71-4.211-1.71-6.566 0-2.317.57-4.496 1.71-6.538 1.14-2.041 2.685-3.659 4.635-4.855 1.949-1.194 4.045-1.793 6.29-1.793 2.28 0 4.377.599 6.289 1.793 1.913 1.196 3.429 2.805 4.552 4.828 1.121 2.024 1.683 4.212 1.683 6.565 0 2.355-.561 4.553-1.683 6.594m-63.751-11.89H10.359c-2.575 0-4.644.783-6.207 2.345-1.564 1.564-2.345 3.633-2.345 6.207V38.84c0 .296.147.442.442.442h6.29c.294 0 .442-.146.442-.442V24.607c0-.883.257-1.581.772-2.097.515-.514 1.214-.772 2.097-.772h13.903c.294 0 .442-.147.442-.442v-6.18c-.002-.293-.149-.441-.443-.441"/></svg>